<svg version="1.1" id="Layer_1" xmlns="http://www.w3.org/2000/svg" xmlns:xlink="http://www.w3.org/1999/xlink" x="0px" y="0px"
	 width="100%" viewBox="0 0 1024 1024" enable-background="new 0 0 1024 1024" xml:space="preserve">
<path fill="#000000" opacity="1.000000" stroke="none" 
	d="
M656.559204,200.414764 
	C659.986450,215.180908 667.652771,227.544891 674.877747,240.097229 
	C678.883484,247.056473 682.219788,254.326279 684.916748,261.850647 
	C687.529114,269.139282 690.866516,275.987915 695.584595,282.100830 
	C709.126038,299.645630 717.900696,319.146790 719.734253,341.399109 
	C720.587463,351.752960 724.144897,361.093506 728.715271,370.266937 
	C735.358154,383.600098 738.738220,397.811951 738.359253,412.732971 
	C737.950500,428.832428 739.763855,444.455719 744.347351,460.032501 
	C749.902100,478.909668 748.438782,498.091461 741.778564,516.515076 
	C737.889038,527.274292 735.372986,538.093933 734.383301,549.457397 
	C732.035278,576.418091 721.186829,599.804565 703.581482,620.164429 
	C699.642151,624.720093 695.950806,629.396240 693.298096,634.850708 
	C679.221191,663.795959 656.318726,683.272278 627.217896,695.905945 
	C580.892456,716.017273 535.995361,711.681519 492.326172,687.650269 
	C484.445770,683.313782 476.568695,678.958191 468.540955,674.906921 
	C462.865692,672.042908 456.843750,670.105530 450.325958,670.243774 
	C442.634094,670.406860 437.257935,674.174011 434.442963,681.114502 
	C425.113678,704.116699 419.566864,727.965454 418.023071,752.822937 
	C417.226044,765.656555 417.654724,778.469299 417.240967,791.283508 
	C416.968109,799.734070 415.159729,807.790894 410.266388,814.917053 
	C408.814392,817.031616 407.052185,818.792480 404.663635,819.734009 
	C401.352448,821.039246 398.031647,821.232666 395.511108,818.210510 
	C392.817993,814.981323 393.418396,811.431458 396.010681,808.650024 
	C403.934143,800.148438 405.840973,789.532104 406.677094,778.669678 
	C408.221619,758.604553 408.389587,738.425781 412.642303,718.615417 
	C415.445892,705.555603 419.221558,692.798279 423.938843,680.332031 
	C427.359253,671.292847 424.729462,664.012451 418.110016,657.786560 
	C411.113617,651.206177 402.235840,648.091370 393.339386,645.251404 
	C374.513672,639.241760 356.391632,631.841736 340.330078,620.035767 
	C313.004517,599.950134 293.904694,573.978943 283.938995,541.448486 
	C279.246155,526.129822 275.040070,510.760925 275.561829,494.465088 
	C275.846436,485.576111 276.403900,476.694183 279.576263,468.422638 
	C285.156769,453.872101 287.571533,438.549652 291.530121,423.608398 
	C295.422516,408.917053 301.876678,395.279449 311.812927,383.853821 
	C321.113983,373.158508 328.566559,361.566681 334.531769,348.795227 
	C341.207428,334.502686 350.926514,322.421051 363.729065,313.223663 
	C374.452209,305.520111 383.354492,296.372498 390.627350,285.382019 
	C401.971649,268.238953 417.655640,256.084564 436.136414,247.465195 
	C444.097565,243.752151 451.301453,239.041977 457.322479,232.683624 
	C475.182251,213.823227 497.276764,203.265732 522.553101,198.434845 
	C539.991089,195.102020 555.965698,187.182312 572.638306,181.442459 
	C586.384033,176.710236 599.622192,170.972061 611.670776,162.632675 
	C627.846802,151.436539 640.101501,136.611023 651.424683,120.832985 
	C660.861633,107.683182 670.763000,94.902145 683.073914,84.244568 
	C702.164429,67.717964 723.825134,57.310909 749.536316,56.773071 
	C753.064270,56.699276 753.065735,56.770550 757.175354,59.100266 
	C721.248779,61.664780 695.544006,79.761436 676.169434,107.632393 
	C656.754761,135.561096 648.861450,166.201370 656.559204,200.414764 
M603.930786,245.324966 
	C592.566467,269.449921 581.202087,293.574890 569.837708,317.699860 
	C580.410828,311.767395 591.509155,308.711823 602.510193,305.417145 
	C621.694641,299.671539 639.833984,292.008362 654.294739,277.487488 
	C655.117554,276.661224 655.978821,275.273865 657.853210,276.205444 
	C657.417053,278.931274 655.155273,280.259949 653.439453,281.904480 
	C640.413147,294.389893 624.790955,302.344971 607.806213,307.896973 
	C597.365417,311.309845 586.681641,314.112488 577.072693,319.668823 
	C569.835693,323.853546 564.168152,329.404572 560.851501,337.358154 
	C557.200134,346.114594 552.884888,354.591705 549.071960,363.283936 
	C542.810730,377.557190 536.721313,391.905792 530.167542,407.133331 
	C541.593140,397.617493 553.937439,392.144592 566.748596,387.897614 
	C585.074341,381.822479 603.723267,376.721619 622.045532,370.636841 
	C642.485962,363.848633 661.263306,353.967285 676.730103,338.556458 
	C677.653992,337.635895 678.446106,335.913574 680.908630,337.201813 
	C677.911743,341.613159 674.026489,344.927704 670.173096,348.223846 
	C650.593506,364.971802 627.200684,374.000153 602.925659,381.147339 
	C584.390869,386.604492 565.707336,391.643555 548.383850,400.462341 
	C536.024414,406.754028 526.103455,415.175476 521.370605,429.063751 
	C516.432861,443.553436 510.231262,457.607513 504.944489,471.985229 
	C502.330750,479.093475 499.329132,486.125854 497.637482,494.330597 
	C502.950592,490.837738 506.890594,486.744507 511.724976,483.797882 
	C529.032227,473.248871 548.084473,467.416931 567.552185,462.629059 
	C588.074341,457.581848 608.884583,453.646545 628.859863,446.499847 
	C652.085022,438.190369 674.023743,427.616516 692.568604,410.931671 
	C693.464050,410.125977 694.253723,408.737823 695.966675,409.531891 
	C696.265381,411.823242 694.304382,412.669250 693.078735,413.797607 
	C671.803772,433.384644 646.524048,445.686127 619.214417,454.296173 
	C597.117676,461.262787 574.139587,464.746429 551.963745,471.397797 
	C535.587646,476.309570 519.833191,482.557098 506.284607,493.288116 
	C499.422394,498.723267 493.463501,505.169830 490.564392,513.574707 
	C484.647217,530.729309 479.127319,548.021729 473.530670,565.285461 
	C471.909943,570.284851 470.584686,575.379883 469.129852,580.410583 
	C471.087524,581.076599 471.909607,580.032593 472.716553,579.333008 
	C488.232117,565.881592 506.518829,557.580261 525.626221,550.810181 
	C554.583801,540.550049 584.852112,535.338623 614.515503,527.798340 
	C642.763672,520.617676 670.127197,511.416779 693.898499,493.791870 
	C694.722290,493.181091 695.633606,492.072571 697.171997,493.320068 
	C695.642761,495.780823 693.385132,497.423126 691.097107,499.026581 
	C669.806335,513.947021 646.015869,523.292114 621.186707,530.290161 
	C592.826660,538.283325 563.619507,542.943604 535.541565,552.059204 
	C516.607910,558.206055 498.174133,565.488464 482.075439,577.467224 
	C471.632629,585.237549 463.078217,594.561646 459.720367,607.819763 
	C457.926910,614.901184 455.129181,621.726868 452.818512,628.679199 
	C451.656952,632.173950 450.570801,635.693848 449.177887,640.056396 
	C451.600250,637.968750 453.212128,636.543579 454.861542,635.163330 
	C476.149811,617.349976 501.594635,609.562073 528.254822,604.606812 
	C552.678650,600.067261 577.517273,599.095032 602.090515,595.806763 
	C628.634583,592.254883 653.984741,585.465149 676.911804,571.107178 
	C678.063965,570.385620 679.251526,569.101990 681.027100,569.986816 
	C680.585144,572.077393 678.824524,572.879028 677.354553,573.832947 
	C668.239624,579.747803 658.558167,584.578064 648.413330,588.440063 
	C621.802185,598.570496 593.790527,601.500183 565.766724,604.210388 
	C541.028870,606.602783 516.411072,609.582825 492.953644,618.370605 
	C475.403870,624.945312 459.436127,633.999939 447.811981,649.282166 
	C446.532532,650.964294 444.795135,652.579590 444.934082,655.582153 
	C452.721680,651.156982 460.250397,647.746704 468.393860,645.679016 
	C486.456940,641.092651 504.408783,642.708618 522.372253,646.165771 
	C538.381348,649.246765 554.241577,653.352173 570.534363,654.606873 
	C596.574341,656.612061 621.751282,653.350891 645.150574,640.763550 
	C646.111328,640.246704 647.283691,638.886536 648.723816,640.724487 
	C646.476562,643.374512 643.345276,644.603516 640.413330,646.005188 
	C615.328003,657.996887 588.903503,661.646729 561.541687,657.595825 
	C545.250244,655.183838 529.147644,651.523438 512.893860,648.822998 
	C496.456543,646.092041 480.017151,646.044922 463.962494,651.266296 
	C456.134125,653.812256 448.935638,657.587463 443.425262,664.092224 
	C453.243805,662.206055 462.186127,664.534851 470.759338,668.610413 
	C476.770203,671.467957 482.685577,674.555054 488.488800,677.815247 
	C504.385193,686.745728 520.816589,694.459595 538.641602,698.575256 
	C562.023560,703.973999 585.316528,702.927917 608.148560,695.582214 
	C642.078796,684.665894 669.684082,665.649109 686.366028,633.057190 
	C689.259155,627.404724 692.701172,622.148499 696.889404,617.317993 
	C713.438171,598.231384 724.369568,576.440247 727.230652,551.138794 
	C728.428589,540.545044 729.036133,529.977905 733.050476,519.877380 
	C741.114258,499.587616 742.713928,478.618469 736.465149,457.714539 
	C732.622925,444.861359 731.217468,432.062408 731.621277,418.816559 
	C732.164124,401.011688 728.482727,384.135040 720.151428,368.265259 
	C716.902893,362.077362 714.225342,355.531982 713.726318,348.423279 
	C712.157410,326.071655 704.940369,305.837128 691.316711,287.977051 
	C686.842651,282.111725 682.937683,275.873810 680.370667,268.984619 
	C675.576843,256.119598 669.128174,244.134995 662.213318,232.326523 
	C652.092407,215.042892 646.524902,196.469482 646.554199,176.245285 
	C646.568420,166.408646 647.591064,156.732971 648.577087,146.829422 
	C633.794312,179.430511 619.011536,212.031616 603.930786,245.324966 
M553.285156,235.058472 
	C552.756226,227.269836 552.955750,219.565033 555.061157,211.439178 
	C557.413635,213.368530 556.603333,214.893829 556.526978,216.317307 
	C556.188110,222.642502 556.264709,228.954712 556.585083,235.289749 
	C557.670471,256.754242 569.390198,275.421814 572.464172,296.545349 
	C599.919006,243.387375 625.054810,189.309464 651.255127,134.302673 
	C649.557190,135.251404 649.070374,135.391357 648.781250,135.710449 
	C648.000122,136.572479 647.289917,137.500427 646.574829,138.420303 
	C637.315735,150.332031 626.723816,160.783783 614.142029,169.259705 
	C602.706848,176.963196 590.375000,182.700577 577.417603,187.160416 
	C559.798950,193.224686 542.849915,201.424881 524.463013,205.027969 
	C501.290558,209.568848 480.704346,218.814316 464.035706,235.865662 
	C456.486176,243.588531 447.799744,249.581894 438.048370,254.194351 
	C420.349030,262.566254 405.810791,274.726135 394.852020,291.032043 
	C388.191650,300.942230 380.249512,309.578674 370.472260,316.540527 
	C355.278961,327.358765 344.668762,341.835815 337.033539,358.719360 
	C333.460236,366.620880 329.163544,374.117981 323.214111,380.597290 
	C310.586273,394.349823 301.597443,410.203461 297.349945,428.425110 
	C293.985779,442.857269 290.742279,457.273071 285.707855,471.264709 
	C283.229889,478.151459 282.223297,485.511932 282.302399,492.885315 
	C282.619446,522.441711 291.017792,549.768799 306.645081,574.628662 
	C325.151550,604.068665 351.738831,623.582336 384.368408,635.239075 
	C401.433258,641.335388 420.178772,644.816223 430.041656,663.115845 
	C432.432007,660.270874 432.835388,657.373779 432.945709,654.354431 
	C433.670898,634.510742 424.880035,618.663818 411.911407,604.657532 
	C400.031555,591.827209 385.585846,582.196533 371.146881,572.596985 
	C352.894226,560.461975 335.598785,547.240173 322.013184,529.767151 
	C320.663727,528.031494 318.775757,526.494629 318.703003,523.979065 
	C320.500916,523.440247 321.076752,524.666321 321.726868,525.515198 
	C334.584778,542.303833 351.050842,554.957153 368.527008,566.465515 
	C380.491882,574.344543 392.656677,581.945862 403.576416,591.299011 
	C419.629333,605.048889 432.174591,621.072144 436.656189,642.334900 
	C436.784515,642.943787 436.661560,644.058960 437.509186,644.053223 
	C446.600159,628.770142 445.409515,613.028198 440.407990,597.082092 
	C434.203369,577.300110 423.029419,560.475830 409.455719,545.079529 
	C395.231049,528.945007 378.921997,514.815674 364.826691,498.547485 
	C347.776123,478.868561 333.774078,457.325195 324.100189,433.081787 
	C323.221527,430.879791 321.941010,428.670929 322.424011,425.861755 
	C325.011261,426.822388 325.202209,429.058502 325.874817,430.770660 
	C333.629822,450.511719 345.021332,468.080811 358.113678,484.594299 
	C371.398346,501.350342 387.013245,515.935059 401.994873,531.111206 
	C424.823029,554.235779 443.565216,579.737122 448.402008,613.282349 
	C449.930817,611.928955 450.252380,610.264099 450.755829,608.735840 
	C455.705475,593.710144 460.594330,578.664368 465.553162,563.641724 
	C467.247223,558.509583 467.873352,553.417419 467.173676,547.937683 
	C464.811127,529.434814 456.712708,513.314270 447.068481,497.788818 
	C435.164154,478.625061 420.590454,461.438141 406.767700,443.702148 
	C388.645844,420.450104 374.410950,395.248108 367.270447,366.406830 
	C366.746063,364.288788 365.984833,362.131714 367.123016,358.576965 
	C367.752502,359.923157 367.992828,360.343842 368.150818,360.793457 
	C368.536621,361.891449 368.948273,362.986420 369.237640,364.111359 
	C373.122345,379.213196 379.369476,393.323273 386.915405,406.925293 
	C397.811371,426.565948 412.154510,443.708527 425.944153,461.259216 
	C440.993408,480.413086 455.650970,499.804291 464.943085,522.634216 
	C467.647858,529.279541 469.206787,536.291016 471.806671,544.155579 
	C479.279388,522.245972 486.392914,501.456085 493.419312,480.636810 
	C493.882874,479.263245 493.751801,477.666748 493.779510,476.171753 
	C494.090759,459.390320 487.784485,444.556396 479.705322,430.426758 
	C470.941986,415.100525 461.476776,400.177307 452.574127,384.928589 
	C439.644470,362.782257 429.262054,339.602112 425.225037,314.013641 
	C424.153442,307.221619 422.855591,300.408447 424.119385,293.159149 
	C426.506104,294.598816 426.041107,296.607697 426.141296,298.307190 
	C426.643005,306.817230 428.124725,315.153900 430.259186,323.394196 
	C437.245972,350.367218 450.815430,374.270874 465.195526,397.743469 
	C478.501068,419.462067 493.203979,440.450806 498.081696,466.930939 
	C498.737610,465.735962 499.005280,465.347839 499.177002,464.921112 
	C508.253754,442.367401 517.249023,419.780457 526.447876,397.276733 
	C528.524353,392.196869 529.219971,387.100555 529.027649,381.683899 
	C528.506775,367.014374 522.016602,354.321259 515.503662,341.797607 
	C500.858490,313.636810 492.089386,284.175903 493.751709,252.128143 
	C493.857666,250.085983 493.078186,247.629410 495.649902,245.975861 
	C496.744659,248.934662 496.290131,251.619751 496.291748,254.241226 
	C496.303619,273.409637 499.710541,291.892303 506.176270,309.983002 
	C514.392334,332.971191 529.379456,353.119415 533.922302,378.967346 
	C535.719788,375.315887 536.921387,372.987152 538.025940,370.613251 
	C546.810242,351.734955 555.434143,332.780060 564.433777,314.005219 
	C567.148804,308.341248 568.101318,302.638428 567.446472,296.573059 
	C566.856567,291.108032 565.825867,285.720947 564.050903,280.481354 
	C559.136902,265.975311 553.843079,251.551987 553.285156,235.058472 
z"/>
<path fill="#000000" opacity="1.000000" stroke="none" 
	d="
M357.849121,840.570190 
	C364.191132,864.534607 343.348083,878.972900 322.932495,875.350342 
	C321.032043,875.013123 318.398438,874.816650 318.743958,872.112244 
	C319.095917,869.357666 321.671173,870.681702 323.278015,870.650330 
	C331.688477,870.486511 337.463776,866.248840 339.803802,858.092896 
	C341.443420,852.378052 341.478851,846.533203 339.900085,840.826111 
	C337.209045,831.098145 328.780914,825.925964 318.853149,827.356506 
	C315.049927,827.904541 315.053589,830.524902 315.044983,833.224426 
	C314.990204,850.381165 314.967712,867.538025 314.968842,884.694885 
	C314.969177,889.691284 315.134857,894.687683 315.126831,899.684021 
	C315.119385,904.307739 316.895966,907.298340 321.809509,908.061523 
	C323.445892,908.315674 326.074066,908.226013 325.901367,910.736511 
	C325.736084,913.138916 323.272186,912.917725 321.523407,912.960205 
	C311.710266,913.198425 301.901031,912.129822 292.077515,912.882568 
	C290.492798,913.004028 288.371552,912.899109 288.148407,910.730774 
	C287.940979,908.714966 289.999939,908.590881 291.353546,908.285095 
	C295.920807,907.253357 297.605713,904.026245 297.621094,899.852112 
	C297.701599,878.031311 297.691498,856.209900 297.630707,834.388916 
	C297.619324,830.309082 295.785400,827.363281 291.490967,826.443237 
	C289.893860,826.101135 287.795441,826.027832 288.139099,823.678711 
	C288.418091,821.771240 290.311798,821.848328 291.775696,821.881409 
	C306.079956,822.205322 320.448639,820.652527 334.680634,822.800171 
	C345.340485,824.408691 353.876404,829.302795 357.849121,840.570190 
z"/>
<path fill="#000000" opacity="1.000000" stroke="none" 
	d="
M546.164795,817.290527 
	C547.859314,819.265381 547.319031,821.324646 547.320312,823.281067 
	C547.335693,847.611511 547.331360,871.941895 547.297913,896.272339 
	C547.291626,900.873169 547.544128,905.175659 553.642029,905.614197 
	C554.711975,905.691162 555.525696,906.331604 555.643982,907.497131 
	C555.793518,908.969788 554.750977,909.629272 553.595825,909.925964 
	C547.951355,911.375671 542.313721,912.871765 536.619995,914.104004 
	C531.863037,915.133423 533.188232,910.254333 531.481323,908.046204 
	C527.035339,910.283813 523.070251,913.006714 518.174805,913.860840 
	C506.436005,915.908875 494.694641,909.455383 490.468018,898.294678 
	C482.677795,877.723999 494.048218,857.254578 514.965576,854.012756 
	C520.350159,853.178223 525.462769,855.001465 531.537842,855.461182 
	C531.791687,847.575073 532.170227,840.007080 531.226746,832.455750 
	C530.901672,829.854126 528.443848,828.931763 526.183044,828.123779 
	C525.014648,827.706238 524.084595,826.894470 524.294067,825.531189 
	C524.461731,824.439392 525.441711,823.995544 526.430176,823.662415 
	C532.880920,821.487732 539.326721,819.298035 546.164795,817.290527 
M531.744446,886.489746 
	C531.742615,880.827148 531.632690,875.161682 531.779541,869.502930 
	C531.867676,866.104004 530.327454,863.821655 527.688232,862.015686 
	C521.442932,857.742188 513.474731,859.037598 509.240814,865.371704 
	C504.795166,872.022461 503.573730,879.417847 504.929169,887.329346 
	C506.007141,893.621521 508.055389,899.315063 513.710693,902.900024 
	C518.318420,905.820984 523.169983,905.451904 528.039307,903.373474 
	C532.774292,901.352356 531.632080,897.186523 531.735962,893.478394 
	C531.791931,891.481384 531.745483,889.481567 531.744446,886.489746 
z"/>
<path fill="#000000" opacity="1.000000" stroke="none" 
	d="
M574.067932,912.901672 
	C571.250916,912.919495 568.916748,913.005737 566.589905,912.911926 
	C565.249023,912.857849 563.795105,912.557739 563.658691,910.831055 
	C563.542053,909.355530 564.730713,908.932617 565.902161,908.618469 
	C569.877258,907.552429 570.801880,904.596802 570.786194,900.943237 
	C570.745483,891.449829 570.780762,881.956116 570.772278,872.462524 
	C570.769104,868.907715 569.938416,865.831055 566.099182,864.501038 
	C564.952759,864.103882 563.907288,863.446960 564.027710,862.043335 
	C564.169678,860.389771 565.607300,860.113464 566.865845,859.670959 
	C571.419678,858.069824 576.029846,856.603577 580.494995,854.782898 
	C584.684570,853.074646 586.498230,854.212952 586.252625,858.726746 
	C586.218933,859.345764 586.456604,859.979553 586.586853,860.708618 
	C589.120117,860.608826 590.513733,858.732788 592.308289,857.678711 
	C599.527771,853.438416 606.977722,851.964355 614.554626,856.383728 
	C621.391846,860.371582 622.987122,867.170532 623.073181,874.458069 
	C623.177368,883.284424 623.198364,892.113220 623.117981,900.939697 
	C623.084351,904.623535 623.880249,907.561462 627.930298,908.561646 
	C629.098816,908.850281 630.336243,909.210754 630.291992,910.682983 
	C630.239563,912.426880 628.751770,912.894897 627.443726,912.840515 
	C619.463257,912.508362 611.490906,912.540833 603.513611,912.916992 
	C602.339111,912.972351 601.112732,912.528076 600.803833,911.166138 
	C600.402588,909.397156 601.736633,908.830322 603.054504,908.455261 
	C606.145996,907.575439 607.297363,905.101318 607.365967,902.375549 
	C607.621277,892.237793 608.401672,882.064453 606.894104,871.970825 
	C606.030823,866.190735 601.902466,863.008301 596.539978,863.424072 
	C590.382507,863.901428 586.239014,868.063171 586.213867,873.932739 
	C586.177368,882.426941 586.325317,890.923218 586.187439,899.415222 
	C586.113831,903.947449 586.782532,907.748047 591.939514,909.091248 
	C592.432861,909.219727 592.752686,910.014771 593.617004,911.063232 
	C587.235901,914.578125 580.698425,912.133545 574.067932,912.901672 
z"/>
<path fill="#000000" opacity="1.000000" stroke="none" 
	d="
M732.807251,873.838623 
	C732.724243,868.187744 732.927612,862.822876 726.916504,860.304688 
	C721.805847,858.163818 717.054565,860.908020 716.265259,866.401001 
	C716.194458,866.893677 716.176819,867.396484 716.167725,867.895203 
	C716.092834,871.997742 714.387024,875.033752 710.261475,876.098755 
	C707.473816,876.818359 704.850403,876.130554 703.305054,873.487122 
	C701.241821,869.957703 702.572937,866.699646 704.676819,863.727966 
	C711.652466,853.874939 731.805725,850.613892 741.457397,857.764954 
	C746.250366,861.316101 748.175659,866.305298 748.204590,872.104492 
	C748.247742,880.760376 748.151428,889.417114 748.226746,898.072571 
	C748.285339,904.802368 749.869568,905.843933 755.891907,903.253357 
	C757.025391,902.765747 758.093140,902.195129 759.066101,903.255066 
	C760.440186,904.752136 759.332581,905.996277 758.452148,907.221375 
	C752.094177,916.067993 741.381348,916.325256 733.196289,907.400085 
	C728.752625,910.302185 724.085510,913.109924 718.570007,913.990784 
	C707.738098,915.720886 699.506592,908.814575 700.789856,898.916016 
	C701.530457,893.203979 705.140259,889.830017 710.097900,887.469910 
	C715.840027,884.736450 721.969971,883.125427 727.979858,881.199036 
	C731.598877,880.039001 733.259521,878.026245 732.807251,873.838623 
M731.621521,901.792542 
	C733.300781,899.794861 732.796875,897.381104 732.814758,895.105469 
	C732.893433,885.059021 732.203552,884.635986 723.029175,888.858459 
	C716.899109,891.679688 714.490356,896.689392 716.924011,901.555725 
	C719.170471,906.047729 724.446045,906.619385 730.315430,902.998169 
	C730.594727,902.825806 730.828247,902.578979 731.621521,901.792542 
z"/>
<path fill="#000000" opacity="1.000000" stroke="none" 
	d="
M453.642334,862.486694 
	C450.586792,859.608459 447.457520,858.611145 443.787842,860.270020 
	C440.209961,861.887451 439.352844,864.994995 439.323212,868.505310 
	C439.291107,872.308167 437.551910,874.931335 433.919678,875.980591 
	C431.416260,876.703796 428.831879,876.510803 427.107513,874.189453 
	C424.816711,871.105530 425.434479,867.844360 427.175293,864.788086 
	C433.626587,853.461914 457.194336,850.031616 466.441284,859.125793 
	C469.631012,862.262878 471.349182,866.208862 471.352112,870.795227 
	C471.357635,879.455017 471.385620,888.114807 471.409882,896.774597 
	C471.431915,904.635193 472.348724,905.313904 479.759216,902.850769 
	C480.811371,902.500977 481.774658,902.428040 482.480194,903.306458 
	C483.558014,904.648438 482.676819,905.741211 481.886505,906.872620 
	C475.518646,915.989014 464.829102,916.389893 456.765594,907.410156 
	C452.419281,909.776611 448.204895,912.748840 443.029114,913.719421 
	C434.209717,915.373169 426.923523,912.091125 424.527496,905.005493 
	C422.184143,898.075684 425.712158,891.396362 433.780304,887.335571 
	C439.326935,884.543884 445.322571,883.026184 451.202057,881.223328 
	C454.838165,880.108276 456.355499,878.098328 456.053406,874.329224 
	C455.737579,870.388611 456.567139,866.267883 453.642334,862.486694 
M456.009247,888.455933 
	C455.969086,885.877930 454.330109,885.885498 452.585602,886.508362 
	C449.931702,887.455750 447.244293,888.395447 444.749542,889.683899 
	C440.277710,891.993652 438.235687,896.337219 439.673096,900.386230 
	C441.101898,904.411133 444.124847,906.004089 448.317780,905.253601 
	C454.002380,904.236145 455.929016,901.947144 455.992767,896.234802 
	C456.018738,893.908875 456.022858,891.582764 456.009247,888.455933 
z"/>
<path fill="#000000" opacity="1.000000" stroke="none" 
	d="
M657.642212,859.694214 
	C655.643433,860.803589 654.875000,862.398193 655.507996,864.082825 
	C659.286560,874.139893 663.363586,884.073975 668.608032,894.935120 
	C673.401917,884.166809 677.391541,874.529663 680.593018,864.584412 
	C681.508606,861.739990 679.547119,860.316284 677.054382,859.543640 
	C675.752258,859.140015 674.330322,858.662048 674.481812,856.984436 
	C674.661682,854.992371 676.354919,854.856506 677.868774,854.848572 
	C683.031738,854.821594 688.195435,854.852966 693.358398,854.905334 
	C694.568115,854.917603 695.741638,855.232422 696.025269,856.649475 
	C696.306396,858.053772 695.453003,858.876404 694.249878,859.259521 
	C690.096619,860.582214 688.579651,864.073120 687.065552,867.664673 
	C677.816406,889.604004 668.530334,911.527832 659.244385,933.451660 
	C657.220825,938.229187 654.230591,942.148499 649.066162,943.765808 
	C645.679871,944.826233 642.403259,944.491760 639.919800,941.604919 
	C637.866699,939.218140 637.600159,936.476746 639.045044,933.684753 
	C640.776428,930.339417 644.024780,928.434753 647.309265,929.335693 
	C653.735352,931.098206 655.115723,927.217957 657.332703,922.722290 
	C660.320557,916.663086 660.171448,911.446350 657.163757,905.343323 
	C650.911194,892.656067 645.435791,879.586121 639.623413,866.681396 
	C638.242188,863.614746 636.757019,860.626892 633.228516,859.415222 
	C631.914673,858.963928 630.647522,858.247192 631.083984,856.572144 
	C631.431335,855.239075 632.748047,854.991394 633.917480,854.980774 
	C642.079529,854.906860 650.242188,854.878967 658.404602,854.863464 
	C659.623169,854.861206 660.914978,855.180237 661.132874,856.540588 
	C661.509277,858.889709 659.559570,859.097107 657.642212,859.694214 
z"/>
<path fill="#000000" opacity="1.000000" stroke="none" 
	d="
M390.055481,856.270630 
	C390.119598,858.483276 390.119598,860.299438 390.119598,863.408691 
	C393.966278,859.171326 397.305084,856.005615 401.806122,854.521118 
	C408.992554,852.151062 415.836548,856.113892 415.630646,862.662231 
	C415.523346,866.075317 414.002930,868.731018 410.784180,870.197266 
	C408.025330,871.453979 405.691528,870.763000 403.482697,868.768494 
	C397.474396,863.343201 391.464752,864.993225 390.713196,873.071655 
	C389.793182,882.960693 390.342560,893.003296 390.565704,902.972595 
	C390.644653,906.499634 393.527740,907.926392 396.682312,908.555115 
	C398.014038,908.820557 399.611389,908.964905 399.606079,910.653687 
	C399.599884,912.634155 397.854004,912.899841 396.334564,912.909668 
	C387.861847,912.964539 379.388611,912.973450 370.915771,912.937927 
	C369.402252,912.931580 367.700043,912.701599 367.502716,910.771667 
	C367.322632,909.010437 368.942749,908.757812 370.191498,908.397705 
	C373.639313,907.403442 374.800598,904.962646 374.791351,901.597717 
	C374.763916,891.615479 374.780334,881.632935 374.828430,871.650757 
	C374.844391,868.336121 373.735260,865.809937 370.454559,864.572815 
	C369.342102,864.153320 368.183868,863.660583 368.219238,862.247375 
	C368.253906,860.862549 369.423706,860.314819 370.516571,859.913147 
	C375.667023,858.020142 380.834778,856.173950 386.000793,854.323425 
	C387.764099,853.691772 389.300293,853.713379 390.055481,856.270630 
z"/>
<path fill="#000000" opacity="1.000000" stroke="none" 
	d="
M233.465607,252.556915 
	C234.484741,255.068588 235.373978,257.220215 236.264145,259.371460 
	C237.700470,262.842621 239.409714,266.020782 243.569366,266.876984 
	C244.581696,267.085358 245.381256,267.716858 245.304443,268.954834 
	C241.906158,270.804260 224.765900,270.851898 220.848953,268.966553 
	C221.022217,268.545074 221.075958,267.897156 221.392471,267.720795 
	C227.565231,264.281311 227.717392,264.233154 225.036636,257.646484 
	C218.854965,242.457947 223.092300,245.443054 206.957977,245.205475 
	C203.916138,245.160675 199.745407,243.674927 198.014450,246.523193 
	C194.941971,251.578873 192.729813,257.259613 192.185669,263.325470 
	C192.030136,265.059113 193.353210,265.957306 194.883743,266.483582 
	C196.223358,266.944183 197.983185,266.643982 198.592087,268.470398 
	C195.854614,270.929230 180.683289,271.163483 176.771790,268.779114 
	C176.998840,268.362732 177.167114,267.626465 177.465805,267.569061 
	C184.767609,266.166290 186.601120,260.087982 188.838196,254.360870 
	C195.131348,238.249710 201.397980,222.128204 207.719879,206.028366 
	C208.479263,204.094467 208.776642,201.255127 211.459915,201.335663 
	C213.840317,201.407104 213.975159,204.152252 214.690491,205.915085 
	C220.944199,221.326675 227.130081,236.765778 233.465607,252.556915 
M212.675827,225.728531 
	C211.460052,223.149658 211.095856,220.118439 208.449478,217.346024 
	C205.618179,225.004196 203.036591,231.986984 200.242401,239.544785 
	C206.572556,240.010803 211.746719,240.160828 217.197647,239.540573 
	C216.801743,234.450775 214.376450,230.601501 212.675827,225.728531 
z"/>
<path fill="#000000" opacity="1.000000" stroke="none" 
	d="
M717.318726,234.492615 
	C710.568665,221.876694 717.091370,209.470825 731.049072,207.815887 
	C734.690247,207.384155 738.346008,207.535339 741.968567,208.396652 
	C750.257629,210.367493 752.954590,217.186432 748.384399,224.948334 
	C745.505493,224.827866 745.895996,222.258163 745.254944,220.577362 
	C743.014648,214.703156 739.172485,211.809814 733.199463,211.999313 
	C728.819519,212.138275 724.928772,213.367950 723.297852,218.077774 
	C721.599731,222.981750 722.793640,227.515686 727.019470,230.455978 
	C730.008240,232.535477 733.375916,234.069962 736.571472,235.852905 
	C738.897156,237.150482 741.281311,238.356567 743.529724,239.776962 
	C751.041931,244.522644 754.446472,251.718109 752.796875,259.131714 
	C750.995483,267.227509 744.264771,273.172577 735.480652,274.139313 
	C731.002319,274.632141 726.521851,274.441895 722.097046,273.278015 
	C712.699768,270.806152 709.754150,264.331055 713.899109,254.638809 
	C716.741028,254.975510 716.663940,257.552856 717.405151,259.378448 
	C720.430542,266.830597 725.845520,270.315369 733.764587,269.775269 
	C738.756409,269.434784 742.109497,266.978363 743.877258,262.219299 
	C745.684692,257.353607 744.315796,253.403381 740.703796,250.043655 
	C737.860352,247.398834 734.342651,245.827698 730.900208,244.137955 
	C725.968384,241.717117 720.919678,239.438934 717.318726,234.492615 
z"/>
<path fill="#000000" opacity="1.000000" stroke="none" 
	d="
M295.629333,261.893860 
	C295.432037,256.878937 297.839050,253.874176 301.785675,252.113342 
	C305.269928,250.558792 308.871857,249.221054 312.514648,248.085190 
	C314.928192,247.332611 316.881561,246.597076 316.828949,243.556198 
	C316.770874,240.197708 317.067352,236.717361 313.570831,234.726166 
	C310.013214,232.700165 306.181671,234.548981 305.249298,238.603867 
	C305.027374,239.569199 304.961151,240.611908 304.540070,241.481979 
	C303.357727,243.925064 301.304413,244.933609 298.773895,243.902786 
	C296.247925,242.873825 296.197327,240.599869 296.947906,238.390671 
	C297.850525,235.733826 299.999207,234.098419 302.249786,232.616379 
	C306.834015,229.597595 311.888428,228.982224 317.092377,230.184158 
	C322.493652,231.431625 325.174561,234.896194 325.339569,240.595261 
	C325.493591,245.912903 325.413147,251.238052 325.395538,256.559753 
	C325.369720,264.352997 325.462250,264.467865 333.060028,264.394958 
	C333.273468,268.260010 330.198364,269.260254 327.669037,270.406860 
	C324.064606,272.040833 321.882385,271.222961 317.557770,267.283508 
	C302.154816,272.663116 297.799316,271.675232 295.629333,261.893860 
M311.240356,264.780029 
	C317.141296,262.713867 318.403564,259.136139 315.735413,251.866425 
	C313.204193,251.772995 310.970825,252.855270 308.754059,253.881302 
	C305.960602,255.174240 304.179626,257.372681 304.741364,260.524658 
	C305.266296,263.470184 307.369751,264.976257 311.240356,264.780029 
z"/>
<path fill="#000000" opacity="1.000000" stroke="none" 
	d="
M827.897583,273.253723 
	C825.460083,274.345337 823.020508,274.928406 821.375366,273.349670 
	C818.322083,270.419861 815.717712,271.516357 812.581055,273.041138 
	C809.191040,274.689117 805.497620,274.949005 801.995544,273.034302 
	C795.645630,269.562469 795.680359,261.122925 802.111816,257.103973 
	C805.669128,254.881058 809.710510,253.742798 813.689758,252.541138 
	C816.501343,251.692062 817.060303,249.653290 816.962341,247.124619 
	C816.849548,244.211823 816.568054,241.233795 813.385864,240.062012 
	C810.471497,238.988800 808.148132,240.016418 807.090942,243.116135 
	C806.663330,244.369904 806.595459,245.768234 806.046936,246.954193 
	C804.982605,249.255234 802.985657,250.120255 800.671326,249.164886 
	C798.245728,248.163605 797.882263,246.046921 798.703247,243.722610 
	C800.517700,238.585693 809.459351,234.662369 816.716064,235.786514 
	C822.055176,236.613602 824.888184,240.390091 825.412720,246.844345 
	C825.778137,251.340027 825.628052,255.798737 825.430603,260.288452 
	C825.131897,267.079376 825.521851,267.414276 831.912415,267.920105 
	C832.393616,270.853821 830.119080,271.841980 827.897583,273.253723 
M816.597961,257.554413 
	C813.442566,255.357285 811.040466,257.697266 808.668884,259.098633 
	C806.472229,260.396606 805.779297,262.728149 806.635986,265.154602 
	C807.402954,267.326813 809.059021,268.842499 811.504395,268.545441 
	C814.077271,268.232910 816.359436,267.047211 816.795166,264.178680 
	C817.086975,262.257751 816.842529,260.255371 816.597961,257.554413 
z"/>
<path fill="#000000" opacity="1.000000" stroke="none" 
	d="
M872.091187,247.549545 
	C875.650940,239.675522 881.076355,235.253525 889.719666,235.662918 
	C895.725037,235.947372 900.478271,239.604050 902.229736,245.386383 
	C903.617004,249.966278 902.556274,251.671738 897.787598,251.866623 
	C892.969482,252.063522 888.137939,251.997757 883.313293,251.946869 
	C879.567261,251.907379 878.803040,253.933105 879.398315,257.132080 
	C881.175842,266.684937 890.295959,270.461243 898.355957,264.984497 
	C899.530518,264.186371 900.429382,262.690155 902.215332,263.230774 
	C903.578552,264.529541 902.669617,265.672760 901.985535,266.792084 
	C896.132446,276.369415 881.308228,277.006836 874.737854,267.884705 
	C870.334229,261.770966 869.701599,255.020782 872.091187,247.549545 
M885.688232,247.645386 
	C886.510864,247.643921 887.349243,247.744232 888.153015,247.620529 
	C890.036133,247.330704 892.371948,247.749420 893.340820,245.589569 
	C894.004700,244.109894 892.942200,242.690918 891.940796,241.610825 
	C890.264282,239.802734 888.199707,238.949356 885.712158,239.859314 
	C883.086121,240.819901 880.784729,242.424057 880.725830,245.349457 
	C880.675110,247.869827 883.161560,247.437439 885.688232,247.645386 
z"/>
<path fill="#000000" opacity="1.000000" stroke="none" 
	d="
M251.652435,283.406708 
	C253.715958,269.067963 252.272125,255.057632 252.669327,241.088425 
	C252.769104,237.579178 249.634979,236.674438 247.541199,234.245865 
	C251.477646,231.186951 255.928680,230.238892 259.714752,228.880280 
	C261.202271,229.611237 261.391205,230.430176 261.431763,231.266296 
	C262.158905,246.245422 262.604126,261.245880 261.214172,276.189850 
	C260.337158,285.619019 253.454941,293.256897 245.069809,295.141327 
	C242.878738,295.633759 239.800537,296.618164 239.196289,293.460785 
	C238.533478,289.997314 241.619156,289.532196 244.208206,289.710541 
	C248.603958,290.013428 250.563095,287.568451 251.652435,283.406708 
z"/>
<path fill="#000000" opacity="1.000000" stroke="none" 
	d="
M286.219025,235.197556 
	C286.220184,247.665207 286.325684,259.662079 286.189331,271.656219 
	C286.057037,283.290436 280.642792,291.412567 271.152618,294.666840 
	C270.057068,295.042511 268.914612,295.342896 267.769501,295.498535 
	C265.986359,295.740814 264.247681,295.440552 263.932190,293.321564 
	C263.628326,291.280731 265.158600,290.224884 266.863281,289.903076 
	C269.836029,289.341888 273.264709,290.430756 275.125671,286.677246 
	C276.591309,283.721161 276.720215,280.610870 277.079559,277.473175 
	C278.411346,265.845001 276.391144,254.179871 277.543304,242.542557 
	C277.903290,238.906677 276.197662,236.146027 271.122986,235.134949 
	C275.651855,231.348312 279.851593,229.931381 283.811920,229.346008 
	C287.233002,228.840317 285.764526,232.694519 286.219025,235.197556 
z"/>
<path fill="#000000" opacity="1.000000" stroke="none" 
	d="
M855.405884,264.358948 
	C854.291321,266.821106 853.330017,268.939545 852.350952,271.049744 
	C851.793579,272.251099 851.325989,273.697601 849.772095,273.797913 
	C847.835266,273.922974 847.456848,272.154327 846.883362,270.845032 
	C843.417358,262.932648 839.925171,255.029846 836.618774,247.050461 
	C835.141113,243.484512 833.557983,240.140320 829.551086,238.164459 
	C835.687378,236.572769 841.467346,235.334534 848.775146,237.516144 
	C842.861938,240.987350 844.755066,244.719238 846.427795,248.513306 
	C848.091370,252.286774 849.600220,256.128418 851.524658,260.780762 
	C855.625610,254.870819 857.201416,248.816559 859.463196,243.099152 
	C859.837952,242.151932 859.563904,242.043533 855.514587,237.443298 
	C860.624695,236.304367 865.169861,236.069366 870.956604,237.345337 
	C861.539124,244.637192 860.376160,255.316589 855.405884,264.358948 
z"/>
<path fill="#000000" opacity="1.000000" stroke="none" 
	d="
M771.541077,247.555511 
	C773.797546,251.783447 774.697937,256.294037 778.227905,260.646454 
	C780.733948,254.508606 782.940735,249.019104 785.217163,243.558685 
	C786.708618,239.981262 781.693359,240.529297 781.656433,237.240128 
	C786.365906,236.315445 791.007446,236.271332 796.316956,237.399887 
	C786.593506,246.101135 784.959106,258.213226 779.484924,268.278381 
	C778.401978,270.269592 777.958496,272.682465 775.954468,273.914246 
	C773.367554,273.486084 773.124207,271.437592 772.416748,269.842834 
	C769.648315,263.601624 766.979980,257.315948 764.200256,251.079895 
	C762.018921,246.186203 760.341187,240.928146 755.056885,237.702972 
	C761.314331,236.394653 767.294495,236.479767 773.679504,237.439667 
	C769.642212,240.325180 768.991028,243.462265 771.541077,247.555511 
z"/>
<path fill="#000000" opacity="1.000000" stroke="none" 
	d="
M813.019653,227.161255 
	C810.045959,227.109604 807.545593,227.185303 805.072388,226.961548 
	C803.307373,226.801834 801.869934,225.906815 801.901917,223.811325 
	C801.933472,221.743423 803.267212,220.798157 805.123840,220.774170 
	C810.767395,220.701233 816.412903,220.718033 822.056763,220.780655 
	C823.999390,220.802200 825.151611,221.848694 825.124268,223.902283 
	C825.096863,225.959763 823.807312,226.939270 821.967773,227.043030 
	C819.153442,227.201797 816.326355,227.132797 813.019653,227.161255 
z"/>
<path fill="#000000" opacity="1.000000" stroke="none" 
	d="
M285.014374,206.789032 
	C287.672852,209.232147 287.683441,211.689911 285.959747,214.192764 
	C284.752106,215.946320 282.996552,216.925735 280.818146,216.574249 
	C278.459534,216.193680 276.948853,214.679977 276.371735,212.393234 
	C275.215881,207.813217 279.120331,205.091278 285.014374,206.789032 
z"/>
<path fill="#000000" opacity="1.000000" stroke="none" 
	d="
M256.135681,205.798309 
	C260.599976,205.800522 262.870300,207.855438 262.314178,211.901093 
	C261.882294,215.042984 259.560059,216.843170 256.293091,216.380554 
	C253.003922,215.914795 251.565750,213.582291 251.794647,210.366486 
	C251.964905,207.974045 253.483353,206.539322 256.135681,205.798309 
z"/>
</svg>